<?xml version="1.0" encoding="UTF-8" standalone="no"?>
<!DOCTYPE svg PUBLIC "-//W3C//DTD SVG 1.1//EN" "http://www.w3.org/Graphics/SVG/1.1/DTD/svg11.dtd">
<svg width="100%" height="100%" viewBox="0 0 2000 2000" version="1.1" xmlns="http://www.w3.org/2000/svg" xmlns:xlink="http://www.w3.org/1999/xlink" xml:space="preserve" style="fill-rule:evenodd;clip-rule:evenodd;stroke-linejoin:round;stroke-miterlimit:1.41421;">
    <g transform="matrix(0.93,0,0,0.93,70,70)">
        <circle cx="1000" cy="1000" r="1000" style="fill:rgb(225,225,233);"/>
    </g>
    <g transform="matrix(0.882,0,0,0.882,118,118)">
        <circle cx="1000" cy="1000" r="1000" style="fill:rgb(51,51,69);"/>
    </g>
    <g id="cool_background_effect_thingy" transform="matrix(0.882,0,0,0.882,118,118)">
        <path d="M1982.75,1185.75C1898.96,1631.08 1519.54,1972.62 1056.43,1998.43L392,1334L472,1311L567,1313L533,1279L1471,674L1982.75,1185.75Z" style="fill:url(#_Linear1);"/>
    </g>
    <g id="laptop" transform="matrix(3.90828,0,0,3.90828,413.758,546.639)">
        <g transform="matrix(1,0,0,1,-8,-6)">
            <path d="M269,59.202C269,51.364 262.636,45 254.798,45L61.202,45C53.364,45 47,51.364 47,59.202L47,173.798C47,181.636 53.364,188 61.202,188L254.798,188C262.636,188 269,181.636 269,173.798L269,59.202Z" style="fill:rgb(229,229,229);"/>
        </g>
        <g transform="matrix(1.10658,0,0,0.991515,-15.9871,0.93334)">
            <rect x="58" y="49" width="184" height="122" style="fill:rgb(51,51,69);"/>
        </g>
        <g transform="matrix(1,0,0,0.794841,1,38.4673)">
            <path d="M287,184.75C287,183.232 286.021,182 284.814,182L13.186,182C11.979,182 11,183.232 11,184.75L11,190.25C11,191.768 11.979,193 13.186,193L284.814,193C286.021,193 287,191.768 287,190.25L287,184.75Z" style="fill:rgb(230,230,230);"/>
        </g>
    </g>
    <g id="paintbrush" transform="matrix(4.38155e-17,-0.658504,0.515196,4.86866e-17,445.111,1637.01)">
        <g id="bristles" transform="matrix(0.475127,3.69779e-32,1.36509e-31,0.815246,524.873,239.326)">
            <g id="bristles1" transform="matrix(1.59684,0,0,1.327,-596.837,-494.909)">
                <path d="M937.001,1467.44C937.221,1420.24 965.365,1382 1000,1382C1034.77,1382 1063,1420.53 1063,1468C1062.78,1559.12 1011.95,1645.1 982,1645C1010.01,1552.65 937,1559.62 937,1468L937.001,1467.44Z" style="fill:rgb(24,24,33);"/>
            </g>
            <g id="bristles_paint" transform="matrix(1.59684,0,0,1.327,-596.837,-494.909)">
                <clipPath id="_clip2">
                    <path d="M924.225,1513.5C955.31,1454.82 991.066,1497.06 1000,1513.5C1007.43,1527.18 1043.45,1546.46 1073.9,1482.6C1101.91,1423.85 1274.26,1614.33 1175.97,1660.83C1077.68,1707.32 861.664,1717.98 842.814,1691.72C823.964,1665.46 892.362,1573.65 924.225,1513.5Z"/>
                </clipPath>
                <g clip-path="url(#_clip2)">
                    <path d="M937.001,1467.44C937.221,1420.24 965.365,1382 1000,1382C1034.77,1382 1063,1420.53 1063,1468C1062.78,1559.12 1011.95,1645.1 982,1645C1010.01,1552.65 937,1559.62 937,1468L937.001,1467.44Z" style="fill:rgb(232,78,78);"/>
                </g>
            </g>
        </g>
        <g id="stick" transform="matrix(0.464992,1.63565e-32,1.03847e-32,0.842505,535.008,153.19)">
            <path d="M951.834,1410.7C942.58,1299.11 937,1157.29 937,1000C937,646.222 981.253,359 1000,359C1018.75,359 1063,646.222 1063,1000C1063,1157.29 1057.42,1299.11 1048.17,1410.7C1048.17,1410.7 1028.07,1399.94 1000,1399.94C971.927,1399.94 951.834,1410.7 951.834,1410.7Z" style="fill:rgb(151,130,92);"/>
        </g>
    </g>
    <defs>
        <linearGradient id="_Linear1" x1="0" y1="0" x2="1" y2="0" gradientUnits="userSpaceOnUse" gradientTransform="matrix(465,645,-645,465,1227,1063)"><stop offset="0" style="stop-color:rgb(27,27,36);stop-opacity:1"/><stop offset="1" style="stop-color:rgb(45,45,61);stop-opacity:1"/></linearGradient>
    </defs>
</svg>
